# xmcd CD database file
#
# Track frame offsets:
#	150
#	16350
#	42097
#	61267
#	80215
#	92307
#	114855
#	127805
#	150137
#	166955
#	188220
#	201552
#	222092
#	232245
#
# Disc length: 3399 seconds
#
# Revision: 0
# Processed by: cddbd v1.5.1PL0 Copyright (c) Steve Scherf et al.
# Submitted via: CDex 1.51
#
DISCID=ae0d450e
DTITLE=King Alex and The Untouchables - Hot As A Coffee Pot
DYEAR=1997
DGENRE=Blues
TTITLE0=Hot As A Coffee Pot
TTITLE1=Never Do You No Wrong
TTITLE2=Grandma's Sweet Potato Pie
TTITLE3=Just The One That I Love
TTITLE4=Overload Of Love
TTITLE5=Red Cabin
TTITLE6=I Want To Come Back
TTITLE7=The Sweetest Thing
TTITLE8=Right All The Time
TTITLE9=Cryin' Eyes
TTITLE10=The Way You Do That
TTITLE11=Weekend Blues
TTITLE12=Time Is Right
TTITLE13=Some Peoples Do Some Peoples Don't
EXTD=YEAR: 1997
EXTT0=
EXTT1=
EXTT2=
EXTT3=
EXTT4=
EXTT5=
EXTT6=
EXTT7=
EXTT8=
EXTT9=
EXTT10=
EXTT11=
EXTT12=
EXTT13=
PLAYORDER=
